<?xml version="1.0" standalone="no"?>
<!DOCTYPE svg PUBLIC "-//W3C//DTD SVG 1.1//EN" "http://www.w3.org/Graphics/SVG/1.1/DTD/svg11.dtd" >
<svg xmlns="http://www.w3.org/2000/svg" xmlns:xlink="http://www.w3.org/1999/xlink" version="1.1">
<metadata>
Created by FontForge 20170731 at Sat Mar 12 19:21:54 2005
 By Aleksey,,,
Cheri (c)2001, Fontalicious Fonts.
</metadata>
<defs>
<font id="Cheri" horiz-adv-x="570" >
  <font-face 
    font-family="Cheri"
    font-weight="400"
    font-stretch="normal"
    units-per-em="1000"
    panose-1="0 0 4 0 0 0 0 0 0 0"
    ascent="800"
    descent="-200"
    x-height="658"
    cap-height="674"
    bbox="13 -308 977 859"
    underline-thickness="20"
    underline-position="-163"
    unicode-range="U+0020-007E"
  />
<missing-glyph horiz-adv-x="500" 
d="M63 0v800h375v-800h-375zM125 63h250v675h-250v-675z" />
    <glyph glyph-name=".notdef" horiz-adv-x="500" 
d="M63 0v800h375v-800h-375zM125 63h250v675h-250v-675z" />
    <glyph glyph-name=".null" horiz-adv-x="0" 
 />
    <glyph glyph-name="nonmarkingreturn" horiz-adv-x="302" 
 />
    <glyph glyph-name="space" unicode=" " horiz-adv-x="302" 
 />
    <glyph glyph-name="exclam" unicode="!" horiz-adv-x="337" 
d="M320 209q28 -21 28 -61q0 -81 -105 -148q-129 55 -129 139q0 27 14 54q19 19 42 19q33 0 64 -40q22 50 55 50q16 0 31 -13zM325 254l-202 -11l-19 469l212 17z" />
    <glyph glyph-name="quotedbl" unicode="&#x22;" 
d="M523 476q43 -39 43 -99q0 -94 -100 -183l1 -1q0 -16 -11.5 -27t-27.5 -11q-5 0 -9 1q-36 -26 -80 -49h-1q-113 59 -173 136q-53 68 -53 134q0 61 43 100q36 30 80 30q54 0 104 -50q50 49 104 49q44 0 80 -30zM445 308q-4 95 -64 87q-57 -8 -49 -78l16 -130l45 9l-11 56
l50 5l-3 36l-55 -7q-7 23 -7 40q0 25 16 27q21 3 21 -31q0 -10 -2 -20zM449 193q0 21 -21 21t-21 -21t21 -21t21 21zM301 363q-5 94 -64 87q-57 -8 -49 -78l15 -130l45 9l-10 56l50 4l-3 37l-56 -7q-7 23 -7 40q0 25 17 27q21 2 21 -31q0 -10 -2 -20zM316 249q0 21 -21 21
t-21 -21t21 -21t21 21z" />
    <glyph glyph-name="numbersign" unicode="#" horiz-adv-x="629" 
d="M573 498q55 -50 55 -127q0 -108 -103 -192q-4 -23 -23 -38.5t-44 -15.5q-31 -22 -82 -48h-15q-121 63 -188 147q-62 79 -62 155q0 71 54 120q45 39 100 39q54 0 104 -41q50 40 103 40q56 0 101 -39zM553 476q-36 30 -80 30q-54 0 -104 -49q-50 50 -104 50q-44 0 -80 -30
q-43 -39 -43 -100q0 -66 53 -134q60 -77 173 -136h1q44 23 80 49q4 -1 9 -1q16 0 27.5 11t11.5 27l-1 1q100 89 100 183q0 60 -43 99zM475 308l-43 -6q2 10 2 20q0 34 -21 31q-16 -2 -16 -27q0 -17 7 -40l55 7l3 -36l-50 -5l11 -56l-45 -9l-16 130q-8 70 49 78q60 8 64 -87z
M479 193q0 -21 -21 -21t-21 21t21 21t21 -21zM331 363l-43 -6q2 10 2 20q0 33 -21 31q-17 -2 -17 -27q0 -17 7 -40l56 7l3 -37l-50 -4l10 -56l-45 -9l-15 130q-8 70 49 78q59 7 64 -87zM346 249q0 -21 -21 -21t-21 21t21 21t21 -21z" />
    <glyph glyph-name="dollar" unicode="$" 
d="M523 476q43 -39 43 -99q0 -94 -100 -183l1 -1q0 -16 -11.5 -27t-27.5 -11q-5 0 -9 1q-36 -26 -80 -49h-1q-113 59 -173 136q-53 68 -53 134q0 61 43 100q36 30 80 30q54 0 104 -50q50 49 104 49q44 0 80 -30zM445 308q-4 95 -64 87q-57 -8 -49 -78l16 -130l45 9l-11 56
l50 5l-3 36l-55 -7q-7 23 -7 40q0 25 16 27q21 3 21 -31q0 -10 -2 -20zM449 193q0 21 -21 21t-21 -21t21 -21t21 21zM301 363q-5 94 -64 87q-57 -8 -49 -78l15 -130l45 9l-10 56l50 4l-3 37l-56 -7q-7 23 -7 40q0 25 17 27q21 2 21 -31q0 -10 -2 -20zM316 249q0 21 -21 21
t-21 -21t21 -21t21 21z" />
    <glyph glyph-name="percent" unicode="%" horiz-adv-x="629" 
d="M573 498q55 -50 55 -127q0 -108 -103 -192q-4 -23 -23 -38.5t-44 -15.5q-31 -22 -82 -48h-15q-121 63 -188 147q-62 79 -62 155q0 71 54 120q45 39 100 39q54 0 104 -41q50 40 103 40q56 0 101 -39zM553 476q-36 30 -80 30q-54 0 -104 -49q-50 50 -104 50q-44 0 -80 -30
q-43 -39 -43 -100q0 -66 53 -134q60 -77 173 -136h1q44 23 80 49q4 -1 9 -1q16 0 27.5 11t11.5 27l-1 1q100 89 100 183q0 60 -43 99zM475 308l-43 -6q2 10 2 20q0 34 -21 31q-16 -2 -16 -27q0 -17 7 -40l55 7l3 -36l-50 -5l11 -56l-45 -9l-16 130q-8 70 49 78q60 8 64 -87z
M479 193q0 -21 -21 -21t-21 21t21 21t21 -21zM331 363l-43 -6q2 10 2 20q0 33 -21 31q-17 -2 -17 -27q0 -17 7 -40l56 7l3 -37l-50 -4l10 -56l-45 -9l-15 130q-8 70 49 78q59 7 64 -87zM346 249q0 -21 -21 -21t-21 21t21 21t21 -21z" />
    <glyph glyph-name="ampersand" unicode="&#x26;" 
d="M523 476q43 -39 43 -99q0 -94 -100 -183l1 -1q0 -16 -11.5 -27t-27.5 -11q-5 0 -9 1q-36 -26 -80 -49h-1q-113 59 -173 136q-53 68 -53 134q0 61 43 100q36 30 80 30q54 0 104 -50q50 49 104 49q44 0 80 -30zM445 308q-4 95 -64 87q-57 -8 -49 -78l16 -130l45 9l-11 56
l50 5l-3 36l-55 -7q-7 23 -7 40q0 25 16 27q21 3 21 -31q0 -10 -2 -20zM449 193q0 21 -21 21t-21 -21t21 -21t21 21zM301 363q-5 94 -64 87q-57 -8 -49 -78l15 -130l45 9l-10 56l50 4l-3 37l-56 -7q-7 23 -7 40q0 25 17 27q21 2 21 -31q0 -10 -2 -20zM316 249q0 21 -21 21
t-21 -21t21 -21t21 21z" />
    <glyph glyph-name="quotesingle" unicode="'" horiz-adv-x="320" 
d="M313 648q31 -29 31 -64q0 -74 -119 -141q-122 60 -122 141q0 29 17 58q18 16 41 16q34 0 64 -43q24 47 55 47q18 0 33 -14z" />
    <glyph glyph-name="parenleft" unicode="(" horiz-adv-x="629" 
d="M573 498q55 -50 55 -127q0 -108 -103 -192q-4 -23 -23 -38.5t-44 -15.5q-31 -22 -82 -48h-15q-121 63 -188 147q-62 79 -62 155q0 71 54 120q45 39 100 39q54 0 104 -41q50 40 103 40q56 0 101 -39zM553 476q-36 30 -80 30q-54 0 -104 -49q-50 50 -104 50q-44 0 -80 -30
q-43 -39 -43 -100q0 -66 53 -134q60 -77 173 -136h1q44 23 80 49q4 -1 9 -1q16 0 27.5 11t11.5 27l-1 1q100 89 100 183q0 60 -43 99zM475 308l-43 -6q2 10 2 20q0 34 -21 31q-16 -2 -16 -27q0 -17 7 -40l55 7l3 -36l-50 -5l11 -56l-45 -9l-16 130q-8 70 49 78q60 8 64 -87z
M479 193q0 -21 -21 -21t-21 21t21 21t21 -21zM331 363l-43 -6q2 10 2 20q0 33 -21 31q-17 -2 -17 -27q0 -17 7 -40l56 7l3 -37l-50 -4l10 -56l-45 -9l-15 130q-8 70 49 78q59 7 64 -87zM346 249q0 -21 -21 -21t-21 21t21 21t21 -21z" />
    <glyph glyph-name="parenright" unicode=")" 
d="M523 476q43 -39 43 -99q0 -94 -100 -183l1 -1q0 -16 -11.5 -27t-27.5 -11q-5 0 -9 1q-36 -26 -80 -49h-1q-113 59 -173 136q-53 68 -53 134q0 61 43 100q36 30 80 30q54 0 104 -50q50 49 104 49q44 0 80 -30zM445 308q-4 95 -64 87q-57 -8 -49 -78l16 -130l45 9l-11 56
l50 5l-3 36l-55 -7q-7 23 -7 40q0 25 16 27q21 3 21 -31q0 -10 -2 -20zM449 193q0 21 -21 21t-21 -21t21 -21t21 21zM301 363q-5 94 -64 87q-57 -8 -49 -78l15 -130l45 9l-10 56l50 4l-3 37l-56 -7q-7 23 -7 40q0 25 17 27q21 2 21 -31q0 -10 -2 -20zM316 249q0 21 -21 21
t-21 -21t21 -21t21 21z" />
    <glyph glyph-name="asterisk" unicode="*" horiz-adv-x="629" 
d="M573 498q55 -50 55 -127q0 -108 -103 -192q-4 -23 -23 -38.5t-44 -15.5q-31 -22 -82 -48h-15q-121 63 -188 147q-62 79 -62 155q0 71 54 120q45 39 100 39q54 0 104 -41q50 40 103 40q56 0 101 -39zM553 476q-36 30 -80 30q-54 0 -104 -49q-50 50 -104 50q-44 0 -80 -30
q-43 -39 -43 -100q0 -66 53 -134q60 -77 173 -136h1q44 23 80 49q4 -1 9 -1q16 0 27.5 11t11.5 27l-1 1q100 89 100 183q0 60 -43 99zM475 308l-43 -6q2 10 2 20q0 34 -21 31q-16 -2 -16 -27q0 -17 7 -40l55 7l3 -36l-50 -5l11 -56l-45 -9l-16 130q-8 70 49 78q60 8 64 -87z
M479 193q0 -21 -21 -21t-21 21t21 21t21 -21zM331 363l-43 -6q2 10 2 20q0 33 -21 31q-17 -2 -17 -27q0 -17 7 -40l56 7l3 -37l-50 -4l10 -56l-45 -9l-15 130q-8 70 49 78q59 7 64 -87zM346 249q0 -21 -21 -21t-21 21t21 21t21 -21z" />
    <glyph glyph-name="plus" unicode="+" 
d="M523 476q43 -39 43 -99q0 -94 -100 -183l1 -1q0 -16 -11.5 -27t-27.5 -11q-5 0 -9 1q-36 -26 -80 -49h-1q-113 59 -173 136q-53 68 -53 134q0 61 43 100q36 30 80 30q54 0 104 -50q50 49 104 49q44 0 80 -30zM445 308q-4 95 -64 87q-57 -8 -49 -78l16 -130l45 9l-11 56
l50 5l-3 36l-55 -7q-7 23 -7 40q0 25 16 27q21 3 21 -31q0 -10 -2 -20zM449 193q0 21 -21 21t-21 -21t21 -21t21 21zM301 363q-5 94 -64 87q-57 -8 -49 -78l15 -130l45 9l-10 56l50 4l-3 37l-56 -7q-7 23 -7 40q0 25 17 27q21 2 21 -31q0 -10 -2 -20zM316 249q0 21 -21 21
t-21 -21t21 -21t21 21z" />
    <glyph glyph-name="comma" unicode="," horiz-adv-x="343" 
d="M320 209q28 -21 28 -61q0 -81 -105 -148q-129 55 -129 139q0 27 14 54q19 19 42 19q33 0 64 -40q22 50 55 50q16 0 31 -13z" />
    <glyph glyph-name="hyphen" unicode="-" horiz-adv-x="320" 
d="M306 462q24 -28 24 -59q0 -77 -133 -135q-108 66 -108 143q0 33 24 65q17 13 37 13q37 0 65 -50q26 41 55 41q20 0 36 -18z" />
    <glyph glyph-name="hyphen" unicode="&#x2010;" horiz-adv-x="320" 
d="M306 462q24 -28 24 -59q0 -77 -133 -135q-108 66 -108 143q0 33 24 65q17 13 37 13q37 0 65 -50q26 41 55 41q20 0 36 -18z" />
    <glyph glyph-name="period" unicode="." horiz-adv-x="343" 
d="M320 209q28 -21 28 -61q0 -81 -105 -148q-129 55 -129 139q0 27 14 54q19 19 42 19q33 0 64 -40q22 50 55 50q16 0 31 -13z" />
    <glyph glyph-name="slash" unicode="/" horiz-adv-x="629" 
d="M573 498q55 -50 55 -127q0 -108 -103 -192q-4 -23 -23 -38.5t-44 -15.5q-31 -22 -82 -48h-15q-121 63 -188 147q-62 79 -62 155q0 71 54 120q45 39 100 39q54 0 104 -41q50 40 103 40q56 0 101 -39zM553 476q-36 30 -80 30q-54 0 -104 -49q-50 50 -104 50q-44 0 -80 -30
q-43 -39 -43 -100q0 -66 53 -134q60 -77 173 -136h1q44 23 80 49q4 -1 9 -1q16 0 27.5 11t11.5 27l-1 1q100 89 100 183q0 60 -43 99zM475 308l-43 -6q2 10 2 20q0 34 -21 31q-16 -2 -16 -27q0 -17 7 -40l55 7l3 -36l-50 -5l11 -56l-45 -9l-16 130q-8 70 49 78q60 8 64 -87z
M479 193q0 -21 -21 -21t-21 21t21 21t21 -21zM331 363l-43 -6q2 10 2 20q0 33 -21 31q-17 -2 -17 -27q0 -17 7 -40l56 7l3 -37l-50 -4l10 -56l-45 -9l-15 130q-8 70 49 78q59 7 64 -87zM346 249q0 -21 -21 -21t-21 21t21 21t21 -21z" />
    <glyph glyph-name="zero" unicode="0" horiz-adv-x="591" 
d="M600 302q0 -155 -54 -229q-65 -90 -222 -85q-142 4 -187 102q-30 65 -30 236q0 134 78 232q75 93 172 93t168 -96q75 -101 75 -253zM477 320q-5 83 -43 140q-36 53 -76 52q-40 -7 -71 -39q-51 -53 -52 -153q-1 -106 19 -149q23 -50 84 -52q64 -2 104 55.5t35 145.5z" />
    <glyph glyph-name="one" unicode="1" horiz-adv-x="295" 
d="M305 674l-21 -684l-149 -4l-21 607z" />
    <glyph glyph-name="two" unicode="2" 
d="M539 118l-26 -170l-400 52q24 128 112 232q37 43 151 140q76 64 76 102q0 30 -35 63q-24 23 -48 23q-72 0 -117 -191l-139 52q20 100 104.5 184t173.5 84q56 0 101 -38q91 -77 91 -183t-93 -155q-113 -59 -165 -163z" />
    <glyph glyph-name="three" unicode="3" horiz-adv-x="500" 
d="M500 148q0 -134 -154 -184q-65 -21 -155 -23l3 134q16 -4 34 -4q80 0 94 73q1 7 1 14q0 78 -159 94l18 125q62 -6 103 31q36 33 36 77q0 34 -24 51q-11 8 -23 8q-43 0 -84 -91l-147 51q2 8 11 23q21 36 75 104q47 59 140 59q76 0 138 -40q68 -43 87 -114q6 -22 6 -44
q0 -91 -97 -165q97 -30 97 -179z" />
    <glyph glyph-name="four" unicode="4" horiz-adv-x="509" 
d="M84 697l153 11q-2 -206 8 -303q6 -62 36 -62q16 0 31.5 19.5t16.5 43.5q3 52 -14 238l140 2l31 -656l-157 -29l16 270q-59 -39 -105 -39q-92 0 -131 150q-28 102 -28 259q0 53 3 96z" />
    <glyph glyph-name="five" unicode="5" horiz-adv-x="484" 
d="M505 597l-32 -185l-312 93q-10 -20 -10 -42q0 -80 124 -108l35 -8q57 -13 88 -71q29 -53 29 -126q0 -86 -38 -148q-41 -70 -111 -75q-64 -1 -114 21q-120 51 -151 205l169 30q-9 -122 63 -126q50 4 50 60q0 36 -26 68q-31 36 -87 52q-93 27 -135 104q-32 59 -29 136
q4 76 12 180z" />
    <glyph glyph-name="six" unicode="6" horiz-adv-x="543" 
d="M561 382l-164 -15q11 44 11 83q0 97 -72 99q-81 2 -81 -158q0 -42 5 -82l10 -44q83 66 149 66q94 0 137 -117q11 -38 11 -80q0 -156 -156 -190q-38 -8 -72 -8q-229 0 -229 381q0 29 1 64q1 23 2 45q2 104 44 180q61 110 186 110q129 0 184 -116q35 -74 35 -181
q0 -21 -1 -37zM436 119q-1 96 -59 93q-27 -2 -53 -24q-29 -24 -29 -54q0 -7 2 -14q15 -61 51 -65q27 -3 51 7q38 15 37 57z" />
    <glyph glyph-name="seven" unicode="7" 
d="M576 498q-186 -169 -257 -391q-30 -93 -34 -189l-172 47q23 183 175 382q63 83 147 163q-157 -22 -315 -46l-7 187l433 12z" />
    <glyph glyph-name="eight" unicode="8" horiz-adv-x="576" 
d="M610 260q15 -32 15 -68q0 -69 -48.5 -134.5t-108.5 -88.5q-38 -15 -89 -15q-83 0 -150 39q-78 46 -104 133q-8 26 -8 52q0 96 100 178q-86 15 -97 130q-11 113 113 150q51 16 125 15q144 7 196 -101q10 -22 10 -44q0 -71 -94 -145q102 -25 140 -101zM432 503
q-11 16 -32 30t-38 14q-100 0 -100 -46q0 -5 1 -10q18 -84 77 -84q10 0 21 2q35 6 57 33q18 23 18 46q0 10 -4 15zM496 212q-14 19 -44 34t-57 15q-14 0 -25 -5q-47 -20 -53 -24q-29 -19 -29 -49q0 -13 6 -30q28 -74 85 -74q22 0 54 9q74 21 74 87q0 22 -11 37z" />
    <glyph glyph-name="nine" unicode="9" horiz-adv-x="543" 
d="M561 234q-2 -104 -44 -180q-61 -110 -186 -110q-129 0 -184 116q-35 74 -35 181q0 21 1 37l164 15q-11 -44 -11 -83q0 -97 72 -99q81 -2 81 158q0 42 -5 82l-10 44q-83 -66 -149 -66q-94 0 -137 117q-11 38 -11 80q0 156 156 190q38 8 72 8q229 0 229 -381q0 -29 -1 -64
q-1 -23 -2 -45zM377 540q-15 61 -51 65q-27 3 -51 -6q-38 -16 -37 -58q1 -96 59 -93q27 2 54.5 25t27.5 53q0 7 -2 14z" />
    <glyph glyph-name="colon" unicode=":" horiz-adv-x="343" 
d="M320 209q28 -21 28 -61q0 -81 -105 -148q-129 55 -129 139q0 27 14 54q19 19 42 19q33 0 64 -40q22 50 55 50q16 0 31 -13zM337 490q19 -21 19 -51q0 -38 -30 -74q-34 -42 -98 -70q-107 67 -107 143q0 34 23 65q17 13 37 13q38 0 65 -50q27 41 56 41q20 0 35 -17z" />
    <glyph glyph-name="semicolon" unicode=";" horiz-adv-x="343" 
d="M320 209q28 -21 28 -61q0 -81 -105 -148q-129 55 -129 139q0 27 14 54q19 19 42 19q33 0 64 -40q22 50 55 50q16 0 31 -13zM337 490q19 -21 19 -51q0 -38 -30 -74q-34 -42 -98 -70q-107 67 -107 143q0 34 23 65q17 13 37 13q38 0 65 -50q27 41 56 41q20 0 35 -17z" />
    <glyph glyph-name="less" unicode="&#x3c;" 
d="M523 476q43 -39 43 -99q0 -94 -100 -183l1 -1q0 -16 -11.5 -27t-27.5 -11q-5 0 -9 1q-36 -26 -80 -49h-1q-113 59 -173 136q-53 68 -53 134q0 61 43 100q36 30 80 30q54 0 104 -50q50 49 104 49q44 0 80 -30zM445 308q-4 95 -64 87q-57 -8 -49 -78l16 -130l45 9l-11 56
l50 5l-3 36l-55 -7q-7 23 -7 40q0 25 16 27q21 3 21 -31q0 -10 -2 -20zM449 193q0 21 -21 21t-21 -21t21 -21t21 21zM301 363q-5 94 -64 87q-57 -8 -49 -78l15 -130l45 9l-10 56l50 4l-3 37l-56 -7q-7 23 -7 40q0 25 17 27q21 2 21 -31q0 -10 -2 -20zM316 249q0 21 -21 21
t-21 -21t21 -21t21 21z" />
    <glyph glyph-name="equal" unicode="=" horiz-adv-x="629" 
d="M573 498q55 -50 55 -127q0 -108 -103 -192q-4 -23 -23 -38.5t-44 -15.5q-31 -22 -82 -48h-15q-121 63 -188 147q-62 79 -62 155q0 71 54 120q45 39 100 39q54 0 104 -41q50 40 103 40q56 0 101 -39zM553 476q-36 30 -80 30q-54 0 -104 -49q-50 50 -104 50q-44 0 -80 -30
q-43 -39 -43 -100q0 -66 53 -134q60 -77 173 -136h1q44 23 80 49q4 -1 9 -1q16 0 27.5 11t11.5 27l-1 1q100 89 100 183q0 60 -43 99zM475 308l-43 -6q2 10 2 20q0 34 -21 31q-16 -2 -16 -27q0 -17 7 -40l55 7l3 -36l-50 -5l11 -56l-45 -9l-16 130q-8 70 49 78q60 8 64 -87z
M479 193q0 -21 -21 -21t-21 21t21 21t21 -21zM331 363l-43 -6q2 10 2 20q0 33 -21 31q-17 -2 -17 -27q0 -17 7 -40l56 7l3 -37l-50 -4l10 -56l-45 -9l-15 130q-8 70 49 78q59 7 64 -87zM346 249q0 -21 -21 -21t-21 21t21 21t21 -21z" />
    <glyph glyph-name="greater" unicode="&#x3e;" 
d="M523 476q43 -39 43 -99q0 -94 -100 -183l1 -1q0 -16 -11.5 -27t-27.5 -11q-5 0 -9 1q-36 -26 -80 -49h-1q-113 59 -173 136q-53 68 -53 134q0 61 43 100q36 30 80 30q54 0 104 -50q50 49 104 49q44 0 80 -30zM445 308q-4 95 -64 87q-57 -8 -49 -78l16 -130l45 9l-11 56
l50 5l-3 36l-55 -7q-7 23 -7 40q0 25 16 27q21 3 21 -31q0 -10 -2 -20zM449 193q0 21 -21 21t-21 -21t21 -21t21 21zM301 363q-5 94 -64 87q-57 -8 -49 -78l15 -130l45 9l-10 56l50 4l-3 37l-56 -7q-7 23 -7 40q0 25 17 27q21 2 21 -31q0 -10 -2 -20zM316 249q0 21 -21 21
t-21 -21t21 -21t21 21z" />
    <glyph glyph-name="question" unicode="?" 
d="M357 145q0 -72 -114 -145q-131 50 -131 133q0 25 14 52q21 24 48 24q31 0 60 -37q20 44 52 44q23 0 47 -20t24 -51zM137 249l182 5l-3 57q79 11 136 32q135 52 135 150q0 108 -83 163q-70 47 -183 47q-97 0 -227 -31l19 -168q157 48 248 48q81 0 81 -41q0 -70 -329 -80z
" />
    <glyph glyph-name="at" unicode="@" horiz-adv-x="1020" 
d="M751 555q43 -39 43 -99q0 -67 -54 -135q-59 -76 -173 -136h-1q-113 60 -173 136q-53 68 -53 135q0 61 43 100q36 29 80 29q54 0 104 -49q50 49 104 49q44 0 80 -30z" />
    <glyph glyph-name="A" unicode="A" horiz-adv-x="481" 
d="M570 4q-29 -5 -171 -18l-27 209l-134 -8l-28 -207l-160 22l173 668l179 8zM360 297l-63 182l-49 -183z" />
    <glyph glyph-name="B" unicode="B" horiz-adv-x="505" 
d="M570 183q0 -205 -265 -205q-94 0 -192 25v651q82 21 161 21q230 0 230 -192q0 -73 -57 -113q123 -50 123 -187zM395 474q3 65 -81 65q-29 0 -59 -7l-5 -128q11 -1 24 -1q118 0 121 71zM438 199q8 101 -151 101q-17 0 -32 -1l-4 -185q17 -2 37 -2q144 0 150 87z" />
    <glyph glyph-name="C" unicode="C" horiz-adv-x="553" 
d="M621 208q-31 -71 -69 -122q-92 -122 -205 -122q-185 0 -251 155q-27 65 -29 155q-2 122 20 209q53 209 214 209t237 -103q32 -43 44 -103l-172 -61q-6 156 -81 148q-47 -5 -83 -90q-35 -81 -35 -175q0 -83 31 -133q35 -58 105 -57q69 1 121 157z" />
    <glyph glyph-name="D" unicode="D" horiz-adv-x="534" 
d="M570 308q-5 -182 -143 -260q-93 -53 -234 -53q-44 0 -80 5v651q26 7 160 31q35 5 63 5q245 0 234 -379zM253 509l2 -373q60 10 105 46q76 58 79 169q5 171 -117 171q-34 0 -69 -13z" />
    <glyph glyph-name="E" unicode="E" horiz-adv-x="548" 
d="M570 374l-345 -36q-1 -10 -1 -23q0 -132 94 -132q27 0 62 13l-50 -203q-113 -6 -179 104q-58 98 -58 243q0 124 44 214q48 98 131 111q39 6 66 6q216 0 236 -297zM424 466q-18 89 -105 83q-20 -2 -35 -12q-37 -26 -43 -92z" />
    <glyph glyph-name="F" unicode="F" horiz-adv-x="466" 
d="M477 501l-232 -12l11 -64l122 13l4 -128l-119 -11l27 -280l-177 -19l2 648l353 18q2 -45 9 -165z" />
    <glyph glyph-name="G" unicode="G" horiz-adv-x="502" 
d="M522 175q-6 -101 -46 -163q-58 -93 -183 -88q-105 5 -151 97q-33 65 -33 168q0 49 7 92l161 -6q-24 -66 -24 -117q0 -78 61 -81q70 -4 90 118q9 51 7 124v2q-36 -28 -93 -28q-16 0 -34 2q-83 10 -135 66q-48 52 -48 120q0 27 9 52q50 139 165 139q55 0 119 -32l-3 47
l173 11zM399 426l-6 140q-147 -8 -147 -87q0 -6 1 -13q9 -56 73 -56q37 0 79 16z" />
    <glyph glyph-name="H" unicode="H" 
d="M570 -73l-189 -13q3 253 -9 374q-8 76 -44 76q-21 0 -39.5 -24t-20.5 -54q-4 -64 17 -293l-172 -3l-39 810l194 35l-20 -333q73 48 130 48q113 0 162 -185q34 -126 34 -320q0 -65 -4 -118z" />
    <glyph glyph-name="I" unicode="I" horiz-adv-x="295" 
d="M305 674l-21 -684l-164 10l-7 651z" />
    <glyph glyph-name="J" unicode="J" horiz-adv-x="543" 
d="M570 675l-9 -441q-2 -104 -44 -180q-61 -110 -186 -110q-157 0 -206 182q-20 76 -17 182l164 15q-9 -46 -9 -89q0 -121 75 -123q81 -2 81 158q0 42 -5 82l-39 300z" />
    <glyph glyph-name="K" unicode="K" horiz-adv-x="598" 
d="M659 -82l-229 -3q7 53 7 110q0 242 -114 242q-16 0 -34 -5l-6 -262h-170v651l184 12l-8 -265q150 5 150 174q0 51 -13 101l174 -39q-2 -211 -123 -305q146 -95 182 -411z" />
    <glyph glyph-name="L" unicode="L" horiz-adv-x="428" 
d="M440 15l-327 -15l6 651l153 17l-6 -483l161 17z" />
    <glyph glyph-name="M" unicode="M" horiz-adv-x="971" 
d="M977 -12l-207 -17q0 120 39 300q11 59 11 114q0 140 -74 140q-69 0 -88 -168q-17 -153 -17 -405l-201 26l56 292q7 49 7 99q0 164 -79 162q-104 -2 -148 -210q-2 -23 -2 -48q0 -61 16 -158q16 -100 17 -123l-176 -23l-18 682l144 6l3 -38q66 58 153 58q101 0 165 -71
q59 74 157 74q127 0 194 -111q53 -87 47 -181q-6 -85 -6 -184q0 -114 7 -216z" />
    <glyph glyph-name="N" unicode="N" horiz-adv-x="665" 
d="M670 -34l-176 -18l2 322q2 263 -72 261q-84 -2 -119 -89q-22 -53 -22 -127q-1 -100 22 -324l-163 -24l-29 684l145 22l4 -52q65 56 151 56q126 0 193 -109q50 -81 52 -179q2 -87 12 -423z" />
    <glyph glyph-name="O" unicode="O" horiz-adv-x="591" 
d="M601 378q13 -73 13 -129q0 -232 -228 -259q-20 -2 -39 -2q-111 0 -172 89q-47 70 -72 216q-7 41 -7 80q0 114 55 197q62 94 170 94q96 0 173 -72q83 -79 107 -214zM421 383q21 -16 21 -45q0 -60 -77 -109q-95 40 -95 102q0 19 10 40q14 14 31 14q25 0 47 -30q16 37 40 37
q13 0 23 -9zM330 512q-85 -33 -85 -147q0 -25 5 -52q15 -94 38 -132q24 -41 69 -41q8 0 18 1q45 7 73 47t28 100q0 31 -8 63q-18 79 -64 126q-40 41 -74 35z" />
    <glyph glyph-name="P" unicode="P" horiz-adv-x="586" 
d="M115 671q85 14 157 14q205 0 292 -110q36 -46 46 -110q4 -25 4 -57q0 -119 -56 -196q-84 -116 -281 -106l9 -140l-170 -9zM268 546l1 -305q136 -4 189 82q22 36 26 87q4 48 -30 86q-46 52 -149 52q-18 0 -37 -2z" />
    <glyph glyph-name="Q" unicode="Q" horiz-adv-x="591" 
d="M759 -134l-81 -33q-41 -16 -79 -16q-128 0 -226 172q-8 -1 -16 -1q-97 0 -172 93q-78 98 -78 232q0 171 30 236q45 98 187 102q157 5 222 -85q54 -74 54 -229q0 -192 -111 -294l1 -3q40 -76 104 -76q50 0 100 41zM477 319q5 88 -35 145.5t-104 55.5q-61 -2 -84 -52
q-20 -43 -19 -149q1 -115 67 -166q-16 49 -25 90l117 36q5 -20 36 -106q42 58 47 146z" />
    <glyph glyph-name="R" unicode="R" horiz-adv-x="532" 
d="M598 -106l-176 -12q6 54 6 112q0 266 -134 266q-18 0 -38 -5l12 -249l-173 -11v665q108 26 191 26q159 0 214 -94q23 -39 23 -93q6 -132 -78 -187q70 -47 104 -123q47 -105 49 -295zM405 511q-7 60 -128 60q-20 0 -43 -2l8 -189q24 -5 45 -5q121 0 118 136z" />
    <glyph glyph-name="S" unicode="S" horiz-adv-x="499" 
d="M509 445l-169 -30q9 122 -63 126q-50 -4 -50 -60q0 -36 26 -68q31 -36 87 -52q93 -27 135 -104q32 -59 29 -136q-3 -67 -67 -129q-71 -67 -161 -65q-108 3 -263 167l119 136q49 -147 147 -152q39 -1 62 15t23 41q0 32 -36 62q-41 35 -116 55q-56 15 -88 74
q-28 54 -28 126q0 85 37 147q42 68 111 73q64 1 114 -21q120 -51 151 -205z" />
    <glyph glyph-name="T" unicode="T" horiz-adv-x="530" 
d="M550 486l-145 10l-10 -516l-187 -7l29 512l-146 -20l3 201l465 -4z" />
    <glyph glyph-name="U" unicode="U" horiz-adv-x="576" 
d="M355 -27q-155 0 -224 157q-51 116 -51 306q0 110 16 214l184 4q-31 -175 -31 -296q0 -207 91 -200q84 6 84 187q0 131 -42 324l202 17q9 -89 9 -188q0 -211 -43 -342q-59 -183 -195 -183z" />
    <glyph glyph-name="V" unicode="V" horiz-adv-x="540" 
d="M570 592l-175 -592l-142 -11l-160 656l175 14q18 -102 64 -375l76 326z" />
    <glyph glyph-name="W" unicode="W" horiz-adv-x="839" 
d="M894 675l-152 -670l-151 7q-24 64 -116 325l-100 -337l-142 -11l-160 656l175 14q18 -102 64 -375l76 326l162 -18l90 -253l67 349z" />
    <glyph glyph-name="X" unicode="X" horiz-adv-x="704" 
d="M787 106l-149 -123l-198 241l-145 -279l-169 39l195 348l-208 268l184 67l123 -174l104 201l190 -43l-156 -277z" />
    <glyph glyph-name="Y" unicode="Y" horiz-adv-x="543" 
d="M567 239q-1 -102 -47 -183q-64 -112 -189 -112q-183 0 -218 241l150 38q3 -110 75 -112q81 -2 81 158q0 18 -1 36q-93 -45 -163 -45q-110 0 -157 109q-33 75 -33 190q0 38 4 70l162 12q-11 -60 -11 -118q0 -61 14 -100q12 -34 54 -34q55 0 116 41l-29 221l168 36
q26 -321 24 -448z" />
    <glyph glyph-name="Z" unicode="Z" horiz-adv-x="580" 
d="M612 452l-263 -306l201 4v-167l-409 -9l-35 161l364 376l-366 -26l-17 166l496 15z" />
    <glyph glyph-name="bracketleft" unicode="[" horiz-adv-x="629" 
d="M573 498q55 -50 55 -127q0 -108 -103 -192q-4 -23 -23 -38.5t-44 -15.5q-31 -22 -82 -48h-15q-121 63 -188 147q-62 79 -62 155q0 71 54 120q45 39 100 39q54 0 104 -41q50 40 103 40q56 0 101 -39zM553 476q-36 30 -80 30q-54 0 -104 -49q-50 50 -104 50q-44 0 -80 -30
q-43 -39 -43 -100q0 -66 53 -134q60 -77 173 -136h1q44 23 80 49q4 -1 9 -1q16 0 27.5 11t11.5 27l-1 1q100 89 100 183q0 60 -43 99zM475 308l-43 -6q2 10 2 20q0 34 -21 31q-16 -2 -16 -27q0 -17 7 -40l55 7l3 -36l-50 -5l11 -56l-45 -9l-16 130q-8 70 49 78q60 8 64 -87z
M479 193q0 -21 -21 -21t-21 21t21 21t21 -21zM331 363l-43 -6q2 10 2 20q0 33 -21 31q-17 -2 -17 -27q0 -17 7 -40l56 7l3 -37l-50 -4l10 -56l-45 -9l-15 130q-8 70 49 78q59 7 64 -87zM346 249q0 -21 -21 -21t-21 21t21 21t21 -21z" />
    <glyph glyph-name="backslash" unicode="\" 
d="M523 476q43 -39 43 -99q0 -94 -100 -183l1 -1q0 -16 -11.5 -27t-27.5 -11q-5 0 -9 1q-36 -26 -80 -49h-1q-113 59 -173 136q-53 68 -53 134q0 61 43 100q36 30 80 30q54 0 104 -50q50 49 104 49q44 0 80 -30zM445 308q-4 95 -64 87q-57 -8 -49 -78l16 -130l45 9l-11 56
l50 5l-3 36l-55 -7q-7 23 -7 40q0 25 16 27q21 3 21 -31q0 -10 -2 -20zM449 193q0 21 -21 21t-21 -21t21 -21t21 21zM301 363q-5 94 -64 87q-57 -8 -49 -78l15 -130l45 9l-10 56l50 4l-3 37l-56 -7q-7 23 -7 40q0 25 17 27q21 2 21 -31q0 -10 -2 -20zM316 249q0 21 -21 21
t-21 -21t21 -21t21 21z" />
    <glyph glyph-name="bracketright" unicode="]" horiz-adv-x="629" 
d="M573 498q55 -50 55 -127q0 -108 -103 -192q-4 -23 -23 -38.5t-44 -15.5q-31 -22 -82 -48h-15q-121 63 -188 147q-62 79 -62 155q0 71 54 120q45 39 100 39q54 0 104 -41q50 40 103 40q56 0 101 -39zM553 476q-36 30 -80 30q-54 0 -104 -49q-50 50 -104 50q-44 0 -80 -30
q-43 -39 -43 -100q0 -66 53 -134q60 -77 173 -136h1q44 23 80 49q4 -1 9 -1q16 0 27.5 11t11.5 27l-1 1q100 89 100 183q0 60 -43 99zM475 308l-43 -6q2 10 2 20q0 34 -21 31q-16 -2 -16 -27q0 -17 7 -40l55 7l3 -36l-50 -5l11 -56l-45 -9l-16 130q-8 70 49 78q60 8 64 -87z
M479 193q0 -21 -21 -21t-21 21t21 21t21 -21zM331 363l-43 -6q2 10 2 20q0 33 -21 31q-17 -2 -17 -27q0 -17 7 -40l56 7l3 -37l-50 -4l10 -56l-45 -9l-15 130q-8 70 49 78q59 7 64 -87zM346 249q0 -21 -21 -21t-21 21t21 21t21 -21z" />
    <glyph glyph-name="asciicircum" unicode="^" 
d="M523 476q43 -39 43 -99q0 -94 -100 -183l1 -1q0 -16 -11.5 -27t-27.5 -11q-5 0 -9 1q-36 -26 -80 -49h-1q-113 59 -173 136q-53 68 -53 134q0 61 43 100q36 30 80 30q54 0 104 -50q50 49 104 49q44 0 80 -30zM445 308q-4 95 -64 87q-57 -8 -49 -78l16 -130l45 9l-11 56
l50 5l-3 36l-55 -7q-7 23 -7 40q0 25 16 27q21 3 21 -31q0 -10 -2 -20zM449 193q0 21 -21 21t-21 -21t21 -21t21 21zM301 363q-5 94 -64 87q-57 -8 -49 -78l15 -130l45 9l-10 56l50 4l-3 37l-56 -7q-7 23 -7 40q0 25 17 27q21 2 21 -31q0 -10 -2 -20zM316 249q0 21 -21 21
t-21 -21t21 -21t21 21z" />
    <glyph glyph-name="underscore" unicode="_" horiz-adv-x="629" 
d="M573 498q55 -50 55 -127q0 -108 -103 -192q-4 -23 -23 -38.5t-44 -15.5q-31 -22 -82 -48h-15q-121 63 -188 147q-62 79 -62 155q0 71 54 120q45 39 100 39q54 0 104 -41q50 40 103 40q56 0 101 -39zM553 476q-36 30 -80 30q-54 0 -104 -49q-50 50 -104 50q-44 0 -80 -30
q-43 -39 -43 -100q0 -66 53 -134q60 -77 173 -136h1q44 23 80 49q4 -1 9 -1q16 0 27.5 11t11.5 27l-1 1q100 89 100 183q0 60 -43 99zM475 308l-43 -6q2 10 2 20q0 34 -21 31q-16 -2 -16 -27q0 -17 7 -40l55 7l3 -36l-50 -5l11 -56l-45 -9l-16 130q-8 70 49 78q60 8 64 -87z
M479 193q0 -21 -21 -21t-21 21t21 21t21 -21zM331 363l-43 -6q2 10 2 20q0 33 -21 31q-17 -2 -17 -27q0 -17 7 -40l56 7l3 -37l-50 -4l10 -56l-45 -9l-15 130q-8 70 49 78q59 7 64 -87zM346 249q0 -21 -21 -21t-21 21t21 21t21 -21z" />
    <glyph glyph-name="grave" unicode="`" horiz-adv-x="1020" 
d="M751 555q43 -39 43 -99q0 -67 -54 -135q-59 -76 -173 -136h-1q-113 60 -173 136q-53 68 -53 135q0 61 43 100q36 29 80 29q54 0 104 -49q50 49 104 49q44 0 80 -30z" />
    <glyph glyph-name="a" unicode="a" horiz-adv-x="543" 
d="M570 -56l-195 24l7 53q-137 -3 -223 27q-125 44 -115 152q14 151 228 151q70 0 147 -16q2 70 -12 114q-20 60 -69 59q-76 -2 -75 -126l-154 13q9 111 50 180q57 100 172 100q125 0 186 -110q42 -76 44 -180zM406 231q-68 14 -123 14q-99 0 -101 -50q-3 -65 110 -65
q50 0 108 12z" />
    <glyph glyph-name="b" unicode="b" horiz-adv-x="522" 
d="M561 289q5 -77 -36 -151q-81 -142 -304 -142q-55 0 -118 9l3 801l153 -8l-7 -180q203 13 276 -152q38 -85 33 -177zM435 305q-3 57 -22 97q-45 96 -160 92l-13 -379q14 -1 28 -1q114 0 152 95q16 40 15 96z" />
    <glyph glyph-name="c" unicode="c" horiz-adv-x="553" 
d="M444 364q-9 160 -102 148q-64 -8 -95 -113q-21 -71 -19 -127q3 -103 113 -103q86 0 229 65l55 -164q-191 -82 -325 -82q-96 0 -141 47q-88 91 -88 241q0 145 77 260q81 121 193 124q143 4 204 -128q25 -55 33 -133z" />
    <glyph glyph-name="d" unicode="d" horiz-adv-x="561" 
d="M574 8q-88 -15 -162 -15q-201 0 -287 104q-36 44 -46 104q-4 26 -4 59q0 123 56 203q84 120 281 110l-8 213l170 10v-788zM435 132l-14 306q-137 4 -190 -82q-22 -36 -26 -87q22 -139 193 -139q18 0 37 2z" />
    <glyph glyph-name="e" unicode="e" horiz-adv-x="543" 
d="M596 168q-105 -174 -274 -174q-29 0 -58 6q-118 22 -170 123q-37 72 -37 175q0 46 7 85q15 73 41 127q65 129 179 141q22 2 42 2q170 0 233 -164q26 -68 29 -164l-391 -34q10 -159 126 -159q32 0 71 14q53 19 81 84zM309 512q-83 -12 -93 -111l197 22q-19 90 -89 90
q-7 0 -15 -1z" />
    <glyph glyph-name="f" unicode="f" horiz-adv-x="484" 
d="M516 394l-160 -22q7 38 7 76q0 122 -78 113q-60 -7 -60 -100q0 -64 26 -149l204 26l11 -134l-185 -16l40 -206l-166 -33l-57 479q-3 29 -3 56q0 207 185 231q15 2 29 2q129 0 181 -162q21 -67 26 -161z" />
    <glyph glyph-name="g" unicode="g" horiz-adv-x="502" 
d="M536 158q3 -29 3 -56q0 -207 -185 -231q-15 -2 -29 -2q-129 0 -181 162q-21 67 -26 161l160 22q-7 -38 -7 -76q0 -122 78 -113q68 8 68 128q0 59 -15 127l-1 3q-37 -43 -120 -48q-92 -6 -155 51q-59 53 -59 127q0 13 2 26q29 168 173 168q42 0 87 -13l-10 45l168 41z
M372 384l-30 136q-131 -30 -131 -99q0 -12 4 -24q15 -45 62 -45q42 0 95 32z" />
    <glyph glyph-name="h" unicode="h" 
d="M570 -73l-189 -13q3 253 -9 374q-8 76 -44 76q-21 0 -39.5 -24t-20.5 -54q-4 -64 17 -293l-172 -3l-39 810l194 35l-20 -333q73 48 130 48q113 0 162 -185q34 -126 34 -320q0 -65 -4 -118z" />
    <glyph glyph-name="i" unicode="i" horiz-adv-x="343" 
d="M303 846q28 -21 28 -61q0 -81 -105 -148q-130 55 -130 139q0 27 15 54q18 19 42 19q33 0 64 -40q22 50 54 50q17 0 32 -13zM346 -1l-237 8l20 571l184 24z" />
    <glyph glyph-name="j" unicode="j" horiz-adv-x="563" 
d="M509 807q31 -20 31 -62q0 -75 -90 -142q-127 46 -127 140q0 18 5 36q18 21 42 21q30 0 60 -34q19 51 51 51q15 0 28 -10zM578 99q-2 -105 -48 -190q-64 -119 -189 -118q-148 1 -213 184q-28 77 -36 183l169 40q-2 -24 -2 -53q0 -184 89 -186q79 -2 79 158q0 46 -6 92
l-49 337q87 14 175 29q11 -90 22 -261q10 -162 9 -215z" />
    <glyph glyph-name="k" unicode="k" horiz-adv-x="598" 
d="M477 329q80 -52 118 -138q57 -132 52 -391l-230 -16q24 134 24 249q0 236 -112 236q-19 0 -40 -7l-6 -262h-170v651l184 12l-8 -265q150 5 150 174q0 24 -3 50l161 -45q-16 -168 -120 -248z" />
    <glyph glyph-name="l" unicode="l" horiz-adv-x="295" 
d="M305 674l-21 -684l-164 10l-7 651z" />
    <glyph glyph-name="m" unicode="m" horiz-adv-x="971" 
d="M977 -12l-207 -17q0 120 39 300q11 59 11 114q0 140 -74 140q-69 0 -88 -168q-17 -153 -17 -405l-201 26l56 292q7 49 7 99q0 164 -79 162q-104 -2 -148 -210q-2 -23 -2 -48q0 -61 16 -158q16 -100 17 -123l-176 -23l-18 682l144 6l3 -38q66 58 153 58q101 0 165 -71
q59 74 157 74q127 0 194 -111q53 -87 47 -181q-6 -85 -6 -184q0 -114 7 -216z" />
    <glyph glyph-name="n" unicode="n" horiz-adv-x="665" 
d="M670 -34l-176 -18l2 322q2 263 -72 261q-84 -2 -119 -89q-22 -53 -22 -127q-1 -100 22 -324l-163 -24l-29 684l145 22l4 -52q65 56 151 56q126 0 193 -109q50 -81 52 -179q2 -87 12 -423z" />
    <glyph glyph-name="o" unicode="o" horiz-adv-x="591" 
d="M610 302q0 -158 -56 -235q-68 -94 -230 -89q-148 5 -196 108q-31 67 -31 240q0 138 80 238q78 97 180 97q103 0 176 -100q77 -104 77 -259zM359 500q-36 -8 -64 -37q-47 -49 -48 -143q0 -103 19 -145t72 -44q57 -2 94.5 51.5t32.5 136.5q-5 80 -41 133q-32 47 -65 48z
" />
    <glyph glyph-name="p" unicode="p" horiz-adv-x="586" 
d="M87 656q116 28 209 28q172 0 253 -93q33 -39 46 -93q9 -42 9 -91q0 -117 -56 -192q-79 -107 -260 -111l19 -139l-169 -21zM235 542l35 -303q137 5 184 94q19 37 20 88q-30 126 -179 126q-28 0 -60 -5z" />
    <glyph glyph-name="q" unicode="q" horiz-adv-x="592" 
d="M794 -140l-224 -168l-152 36l14 338q-197 -10 -281 110q-56 80 -56 203q0 33 4 58q13 62 51 106q91 106 295 106q74 0 161 -15l-26 -738q30 12 65 12q74 0 149 -48zM455 507q-19 2 -37 2q-171 0 -193 -139q4 -51 26 -87q53 -86 190 -82z" />
    <glyph glyph-name="r" unicode="r" 
d="M626 353l-181 -47q-21 221 -69 221q-46 0 -67 -23.5t-21 -79.5q0 -79 15 -424h-183l-7 651l151 27l6 -51q42 34 98 50q20 6 40 6q104 0 172 -165q28 -69 46 -165z" />
    <glyph glyph-name="s" unicode="s" horiz-adv-x="499" 
d="M98 196l171 18q-4 -22 -4 -40q0 -84 58 -90q25 0 39.5 18t14.5 44q0 35 -24 67q-28 36 -81 55q-148 54 -148 217q0 17 2 33q7 68 76 125q75 62 165 53q107 -10 250 -185l-128 -127q-38 150 -136 162q-40 4 -64 -11.5t-24 -42.5q0 -31 33 -63q38 -36 110 -60
q50 -18 78 -71q25 -49 25 -115q0 -90 -43 -157q-47 -74 -121 -74q-64 4 -113 28q-116 60 -136 216z" />
    <glyph glyph-name="t" unicode="t" horiz-adv-x="543" 
d="M570 308q3 -106 -17 -182q-49 -182 -206 -182q-125 0 -186 110q-42 76 -44 180l-9 441l197 -16l-15 -111l269 -13l-16 -157l-271 35l-8 -62q-5 -40 -5 -82q0 -160 81 -158q75 2 75 123q0 43 -9 89z" />
    <glyph glyph-name="u" unicode="u" horiz-adv-x="576" 
d="M312 -42q-231 25 -231 369q0 157 45 331l183 -15q-66 -228 -66 -361q0 -136 73 -138q109 -3 109 285q0 99 -13 219l202 -5q-5 -208 -36 -354q-75 -351 -266 -331z" />
    <glyph glyph-name="v" unicode="v" horiz-adv-x="540" 
d="M589 571l-226 -575l-142 2l-102 667l175 -1q9 -103 31 -379l105 318z" />
    <glyph glyph-name="w" unicode="w" horiz-adv-x="839" 
d="M912 660l-187 -661l-150 14q-21 66 -100 331l-117 -331l-142 -4l-126 664l176 5q13 -103 44 -378l93 321l161 -26l77 -258l85 345z" />
    <glyph glyph-name="x" unicode="x" horiz-adv-x="704" 
d="M113 106l149 -123l198 241l145 -279l169 39l-195 348l208 268l-184 67l-123 -174l-104 201l-190 -43l156 -277z" />
    <glyph glyph-name="y" unicode="y" horiz-adv-x="543" 
d="M558 215q-13 -93 -62 -166q-68 -100 -178 -100q-15 0 -30 2q-182 22 -187 266l153 19q-1 -13 -1 -25q0 -86 62 -95q91 -14 103 183q-78 -27 -138 -27q-186 0 -186 241q0 74 17 150l162 -8q-28 -94 -28 -167q0 -28 5 -50q9 -41 63 -41q52 0 106 27l-2 223l172 15
q-4 -93 -9 -172q-11 -190 -22 -275z" />
    <glyph glyph-name="z" unicode="z" horiz-adv-x="580" 
d="M617 423l-289 -282l201 -13l-15 -167l-408 27l-21 163l396 343l-367 6l-3 167l496 -28z" />
    <glyph glyph-name="braceleft" unicode="{" 
d="M523 476q43 -39 43 -99q0 -94 -100 -183l1 -1q0 -16 -11.5 -27t-27.5 -11q-5 0 -9 1q-36 -26 -80 -49h-1q-113 59 -173 136q-53 68 -53 134q0 61 43 100q36 30 80 30q54 0 104 -50q50 49 104 49q44 0 80 -30zM445 308q-4 95 -64 87q-57 -8 -49 -78l16 -130l45 9l-11 56
l50 5l-3 36l-55 -7q-7 23 -7 40q0 25 16 27q21 3 21 -31q0 -10 -2 -20zM449 193q0 21 -21 21t-21 -21t21 -21t21 21zM301 363q-5 94 -64 87q-57 -8 -49 -78l15 -130l45 9l-10 56l50 4l-3 37l-56 -7q-7 23 -7 40q0 25 17 27q21 2 21 -31q0 -10 -2 -20zM316 249q0 21 -21 21
t-21 -21t21 -21t21 21z" />
    <glyph glyph-name="bar" unicode="|" horiz-adv-x="629" 
d="M573 498q55 -50 55 -127q0 -108 -103 -192q-4 -23 -23 -38.5t-44 -15.5q-31 -22 -82 -48h-15q-121 63 -188 147q-62 79 -62 155q0 71 54 120q45 39 100 39q54 0 104 -41q50 40 103 40q56 0 101 -39zM553 476q-36 30 -80 30q-54 0 -104 -49q-50 50 -104 50q-44 0 -80 -30
q-43 -39 -43 -100q0 -66 53 -134q60 -77 173 -136h1q44 23 80 49q4 -1 9 -1q16 0 27.5 11t11.5 27l-1 1q100 89 100 183q0 60 -43 99zM475 308l-43 -6q2 10 2 20q0 34 -21 31q-16 -2 -16 -27q0 -17 7 -40l55 7l3 -36l-50 -5l11 -56l-45 -9l-16 130q-8 70 49 78q60 8 64 -87z
M479 193q0 -21 -21 -21t-21 21t21 21t21 -21zM331 363l-43 -6q2 10 2 20q0 33 -21 31q-17 -2 -17 -27q0 -17 7 -40l56 7l3 -37l-50 -4l10 -56l-45 -9l-15 130q-8 70 49 78q59 7 64 -87zM346 249q0 -21 -21 -21t-21 21t21 21t21 -21z" />
    <glyph glyph-name="braceright" unicode="}" 
d="M523 476q43 -39 43 -99q0 -94 -100 -183l1 -1q0 -16 -11.5 -27t-27.5 -11q-5 0 -9 1q-36 -26 -80 -49h-1q-113 59 -173 136q-53 68 -53 134q0 61 43 100q36 30 80 30q54 0 104 -50q50 49 104 49q44 0 80 -30zM445 308q-4 95 -64 87q-57 -8 -49 -78l16 -130l45 9l-11 56
l50 5l-3 36l-55 -7q-7 23 -7 40q0 25 16 27q21 3 21 -31q0 -10 -2 -20zM449 193q0 21 -21 21t-21 -21t21 -21t21 21zM301 363q-5 94 -64 87q-57 -8 -49 -78l15 -130l45 9l-10 56l50 4l-3 37l-56 -7q-7 23 -7 40q0 25 17 27q21 2 21 -31q0 -10 -2 -20zM316 249q0 21 -21 21
t-21 -21t21 -21t21 21z" />
    <glyph glyph-name="asciitilde" unicode="~" horiz-adv-x="629" 
d="M573 498q55 -50 55 -127q0 -108 -103 -192q-4 -23 -23 -38.5t-44 -15.5q-31 -22 -82 -48h-15q-121 63 -188 147q-62 79 -62 155q0 71 54 120q45 39 100 39q54 0 104 -41q50 40 103 40q56 0 101 -39zM553 476q-36 30 -80 30q-54 0 -104 -49q-50 50 -104 50q-44 0 -80 -30
q-43 -39 -43 -100q0 -66 53 -134q60 -77 173 -136h1q44 23 80 49q4 -1 9 -1q16 0 27.5 11t11.5 27l-1 1q100 89 100 183q0 60 -43 99zM475 308l-43 -6q2 10 2 20q0 34 -21 31q-16 -2 -16 -27q0 -17 7 -40l55 7l3 -36l-50 -5l11 -56l-45 -9l-16 130q-8 70 49 78q60 8 64 -87z
M479 193q0 -21 -21 -21t-21 21t21 21t21 -21zM331 363l-43 -6q2 10 2 20q0 33 -21 31q-17 -2 -17 -27q0 -17 7 -40l56 7l3 -37l-50 -4l10 -56l-45 -9l-15 130q-8 70 49 78q59 7 64 -87zM346 249q0 -21 -21 -21t-21 21t21 21t21 -21z" />
  </font>
</defs>
</svg>
